<?xml version="1.0" encoding="UTF-8" standalone="no"?>
<!-- Created with Inkscape (http://www.inkscape.org/) -->

<svg
   width="50"
   height="50"
   viewBox="0 0 13.229166 13.229167"
   version="1.1"
   id="svg5"
   inkscape:version="1.2.1 (ef4d3fba62, 2022-07-19, custom)"
   sodipodi:docname="icons.svg"
   inkscape:export-filename="../bdccb61d/phone_icon.png"
   inkscape:export-xdpi="96"
   inkscape:export-ydpi="96"
   xmlns:inkscape="http://www.inkscape.org/namespaces/inkscape"
   xmlns:sodipodi="http://sodipodi.sourceforge.net/DTD/sodipodi-0.dtd"
   xmlns="http://www.w3.org/2000/svg"
   xmlns:svg="http://www.w3.org/2000/svg">
  <sodipodi:namedview
     id="namedview7"
     pagecolor="#ffffff"
     bordercolor="#666666"
     borderopacity="1.0"
     inkscape:showpageshadow="2"
     inkscape:pageopacity="0.0"
     inkscape:pagecheckerboard="0"
     inkscape:deskcolor="#d1d1d1"
     inkscape:document-units="px"
     showgrid="false"
     inkscape:zoom="6.2430977"
     inkscape:cx="22.1845"
     inkscape:cy="24.907507"
     inkscape:window-width="1848"
     inkscape:window-height="1016"
     inkscape:window-x="72"
     inkscape:window-y="27"
     inkscape:window-maximized="1"
     inkscape:current-layer="layer2" />
  <defs
     id="defs2">
    <rect
       x="541.82166"
       y="55.475021"
       width="1009.8905"
       height="356.12137"
       id="rect2453-1-4-1" />
    <rect
       x="541.82166"
       y="55.475021"
       width="1009.8905"
       height="356.12137"
       id="rect2453-1-3-7-2" />
    <rect
       x="541.82166"
       y="55.475021"
       width="1009.8905"
       height="356.12137"
       id="rect2453-1-9-7-9" />
    <rect
       x="541.82166"
       y="55.475021"
       width="1009.8905"
       height="356.12137"
       id="rect2453-1-3-0-5-3" />
  </defs>
  <g
     inkscape:label="mail"
     inkscape:groupmode="layer"
     id="layer1"
     style="display:none">
    <path
       style="fill:#000000;fill-opacity:1;stroke-width:0.015839"
       d="m 0.39017415,11.345682 c -0.1638476,-0.05667 -0.2890155,-0.177473 -0.3524277,-0.339533 -0.0222693,-0.05767 -0.0262293,-0.151478 -0.0316795,-0.645624 l -0.0049,-0.5781062 1.74151705,-1.730427 c 0.9578079,-0.9516939 1.7462436,-1.7303787 1.75206,-1.7303787 0.0049,0 0.7084429,0.5310037 1.5614297,1.1799943 0.8529889,0.6489904 1.5547723,1.1799714 1.5595733,1.1799714 0.0049,0 0.707504,-0.535411 1.561555,-1.1898712 l 1.552816,-1.1898708 0.438163,0.4341536 c 0.241074,0.2385988 1.028299,1.0179032 1.749537,1.7313934 l 1.311347,1.297264 -0.0049,0.5949122 c -0.0049,0.587708 -0.0049,0.595851 -0.04183,0.669634 -0.05914,0.119543 -0.151478,0.211622 -0.2682,0.26909 l -0.105683,0.05222 -1.52881,0.0098 c -0.840857,0.0049 -3.617182,0.01235 -6.1696346,0.01235 -4.36797305,0.0012 -4.64547925,0 -4.72000475,-0.02623 z M 0.00210485,6.0676195 c 0,-1.9262077 0.00255,-2.4077825 0.0198,-2.3956068 0.012348,0.010006 0.627409,0.477221 1.37008155,1.0417863 0.7426218,0.5646419 1.3502545,1.0312924 1.3502545,1.0370109 0,0.0049 -0.616517,0.6218395 -1.3700818,1.3690663 L 0.00207935,8.4784978 Z M 11.853412,7.1036149 C 11.101953,6.3600756 10.485881,5.7463305 10.484397,5.7397221 c -0.0012,-0.0049 0.60976,-0.4811576 1.358349,-1.0544347 l 1.361121,-1.0423312 0.01235,0.5196434 c 0.0049,0.2857731 0.0098,1.3686447 0.0098,2.4062496 l -0.0026,1.8865806 z M 5.6249214,6.9372977 C 4.440371,6.0332895 4.1890281,5.8417926 3.1010809,5.0141749 2.6320033,4.6573188 2.029742,4.1990331 1.7626807,3.9957288 1.4956427,3.7925246 0.98981255,3.4075253 0.63854725,3.140415 L 1.45e-6,2.6547802 l 0.0049,-0.198018 c 0.0049,-0.1769622 0.010006,-0.2064276 0.047029,-0.2778788 0.052714,-0.1012338 0.1638476,-0.2041921 0.2793372,-0.2582495 l 0.089844,-0.042069 2.09864555,-0.012348 C 3.6740354,1.8613169 6.457315,1.8562109 8.70491,1.8562109 l 4.086409,0.00255 0.09949,0.046029 c 0.124994,0.057675 0.24132,0.1804325 0.287257,0.3030989 0.02623,0.069043 0.03268,0.1232476 0.03217,0.2573829 l -5.19e-4,0.1697875 -0.953229,0.7285896 C 11.308847,4.0880102 9.497237,5.4746513 8.997814,5.8579176 7.649193,6.892972 6.634707,7.6658404 6.618222,7.6707648 6.605874,7.6733196 6.1598872,7.3422733 5.624106,6.9334378 Z"
       id="path15554-5"
       sodipodi:nodetypes="ssscssssscssccsscssssssssscssssccccssssscssscsscssscsssss" />
  </g>
  <g
     inkscape:groupmode="layer"
     id="layer2"
     inkscape:label="phone"
     style="display:inline">
    <path
       style="fill:#000000;fill-opacity:1;stroke-width:0.0219308"
       d="m 9.6719191,13.210547 c -0.423862,-0.04948 -0.81665,-0.163118 -1.734353,-0.502186 -0.818175,-0.302449 -1.012176,-0.38273 -1.412686,-0.585595 C 5.4475651,11.577 4.2031111,10.587742 3.0638381,9.3714525 1.9868221,8.2216055 1.2904431,7.2112512 0.84771514,6.1560667 0.70090414,5.806287 0.27242314,4.6342013 0.19078214,4.359048 c -0.23924,-0.8051242 -0.25256,-1.4480274 -0.04513,-2.1462276 0.171809,-0.5765956 0.647226,-1.38223643 1.01084296,-1.71165363 0.226179,-0.2052568 0.520021,-0.3214516 1.11369,-0.4421591 0.214768,-0.044857 0.323246,-0.054101 0.501397,-0.048935 l 0.227279,0.00545 0.09651,0.1071148 c 0.107384,0.1185337 0.144894,0.1802466 0.534076,0.89070693 0.5154,0.9395608 0.663864,1.1966079 0.867734,1.5026448 0.112552,0.169099 0.22646,0.3558696 0.252291,0.4153803 0.06634,0.150342 0.06634,0.3028019 -1.36e-4,0.4399299 -0.06716,0.1378357 -0.479623,0.5540038 -0.769157,0.7758989 -0.49925,0.3827297 -0.772882,0.6567954 -0.845523,0.8469369 -0.0359,0.094064 -0.0359,0.1071149 -6.27e-4,0.2359775 0.04703,0.1707313 0.0851,0.2487554 0.341189,0.6849063 0.763692,1.3021452 1.439029,2.1117825 2.391178,2.8669105 0.441698,0.350106 0.755589,0.560392 1.433835,0.959705 0.450589,0.2650665 0.684254,0.3720455 0.814043,0.3720455 0.18895,-2.8e-5 0.475081,-0.2552805 0.920747,-0.8214635 0.303591,-0.385828 0.633497,-0.720003 0.797757,-0.808386 0.10114,-0.05437 0.134581,-0.06171 0.2552799,-0.05437 0.162853,0.0054 0.311827,0.08156 0.614548,0.291764 0.233522,0.16203 0.547886,0.344397 1.381611,0.800149 1.019,0.5569395 1.111513,0.6240355 1.139271,0.8259485 0.04485,0.320038 -0.184858,1.271045 -0.37422,1.556882 -0.32901,0.495961 -1.390853,1.102298 -2.207206,1.260523 -0.2493,0.04866 -0.7380299,0.07041 -0.9700369,0.04486 z"
       id="path15394-6" />
  </g>
  <g
     inkscape:groupmode="layer"
     id="layer3"
     inkscape:label="time"
     style="display:none"
     transform="matrix(2.0660417,0,0,2.0660417,-43.524956,-4.7990003)">
    <g
       id="g1083"
       transform="translate(-31.277232,-1.42685)"
       style="display:inline;fill:#acacac;fill-opacity:1">
      <path
         style="color:#000000;fill:#acacac;fill-opacity:1;stroke-width:1.16256;stroke-linecap:round;-inkscape-stroke:none"
         d="m 55.545632,3.7496496 c -1.764681,0 -3.201567,1.4368862 -3.201567,3.2015671 0,1.7646926 1.436886,3.2015783 3.201567,3.2015783 1.764693,0 3.201579,-1.4368857 3.201579,-3.2015783 0,-1.7646809 -1.436886,-3.2015671 -3.201579,-3.2015671 z m 0,0.5880914 c 1.446664,0 2.613488,1.1668124 2.613488,2.6134757 0,1.4466633 -1.166824,2.6134874 -2.613488,2.6134874 -1.446663,0 -2.613476,-1.1668241 -2.613476,-2.6134874 0,-1.4466633 1.166813,-2.6134757 2.613476,-2.6134757 z"
         id="path48621-8-7-5" />
      <path
         style="color:#000000;fill:#acacac;fill-opacity:1;stroke-width:1.16256;stroke-linecap:round;stroke-linejoin:round;-inkscape-stroke:none;paint-order:stroke fill markers"
         d="m 55.46616,5.164238 a 0.29422993,0.29422993 0 0 0 -0.295174,0.2951849 v 1.5462945 a 0.29425936,0.29425936 0 0 0 0.295174,0.2951734 h 1.546294 A 0.29422993,0.29422993 0 0 0 57.307639,7.0057174 0.29422993,0.29422993 0 0 0 57.012454,6.7105325 H 55.761345 V 5.4594229 A 0.29422993,0.29422993 0 0 0 55.46616,5.164238 Z"
         id="path48773-0-4-6" />
    </g>
  </g>
  <g
     inkscape:groupmode="layer"
     id="layer4"
     inkscape:label="location"
     style="display:none">
    <rect
       style="opacity:1;fill:#ffffff;fill-opacity:1;stroke:none;stroke-width:0.264583"
       id="rect1282"
       width="12.36772"
       height="19.27368"
       x="-13.268617"
       y="-2.5584781" />
    <path
       id="path4585-5"
       style="display:inline;fill:#000000;fill-opacity:1;stroke:none;stroke-width:1.05862;stroke-linecap:square;stroke-linejoin:round;stroke-miterlimit:4;stroke-dasharray:none;stroke-opacity:1"
       d="m 6.6436825,0.02907436 c -2.436133,0 -4.411116,1.97497764 -4.411116,4.41109294 0,2.4360884 4.011788,8.8180727 4.411116,8.8180727 0.399191,0 4.4110715,-6.3819843 4.4110715,-8.8180727 0,-2.4361153 -1.9750515,-4.41109294 -4.4110715,-4.41109294 z m 0,2.11132114 c 1.136572,0 2.051572,0.9149263 2.051572,2.05152 0,1.1366734 -0.915,2.0515992 -2.051572,2.0515992 -1.136617,0 -2.051548,-0.9149258 -2.051548,-2.0515992 0,-1.1365937 0.914931,-2.05152 2.051548,-2.05152 z"
       inkscape:export-filename="../e3cfb3a/location_icon.png"
       inkscape:export-xdpi="96"
       inkscape:export-ydpi="96" />
    <path
       id="path4585-5-3"
       style="display:inline;opacity:0.81;fill:#000000;fill-opacity:1;stroke:none;stroke-width:0.623639;stroke-linecap:square;stroke-linejoin:round;stroke-miterlimit:4;stroke-dasharray:none;stroke-opacity:1"
       d="m -6.0111046,-1.2570117 c -1.4351389,0 -2.5986117,1.16346966 -2.5986117,2.5985981 0,1.4351124 2.3633655,5.1947731 2.5986117,5.1947731 0.2351655,0 2.5985851,-3.7596607 2.5985851,-5.1947731 0,-1.43512844 -1.1635129,-2.5985981 -2.5985851,-2.5985981 z m 0,1.24379036 c 0.6695605,0 1.2085919,0.5389879 1.2085919,1.20856124 0,0.6696203 -0.5390314,1.2086079 -1.2085919,1.2086079 -0.6695872,0 -1.2085779,-0.5389876 -1.2085779,-1.2086079 0,-0.66957334 0.5389907,-1.20856124 1.2085779,-1.20856124 z"
       inkscape:export-filename="../736e7bb3/location_icon_hover.png"
       inkscape:export-xdpi="96"
       inkscape:export-ydpi="96" />
    <path
       id="path4585-5-3-6"
       style="display:inline;opacity:0.33;fill:#000000;fill-opacity:1;stroke:none;stroke-width:0.623639;stroke-linecap:square;stroke-linejoin:round;stroke-miterlimit:4;stroke-dasharray:none;stroke-opacity:1"
       d="m -6.0111046,7.3545383 c -1.4351389,0 -2.5986117,1.1634694 -2.5986117,2.5985978 0,1.4351129 2.3633655,5.1947739 2.5986117,5.1947739 0.2351655,0 2.5985851,-3.759661 2.5985851,-5.1947739 0,-1.4351284 -1.1635129,-2.5985978 -2.5985851,-2.5985978 z m 0,1.2437903 c 0.6695605,0 1.2085919,0.5389875 1.2085919,1.2085615 0,0.6696199 -0.5390314,1.2086079 -1.2085919,1.2086079 -0.6695872,0 -1.2085779,-0.538988 -1.2085779,-1.2086079 0,-0.669574 0.5389907,-1.2085615 1.2085779,-1.2085615 z"
       inkscape:export-filename="../736e7bb3/location_icon_hover.png"
       inkscape:export-xdpi="96"
       inkscape:export-ydpi="96" />
    <rect
       style="display:inline;fill:#303030;fill-opacity:1;stroke:#000000;stroke-width:0.191494;stroke-dasharray:none"
       id="rect375"
       width="5.9736853"
       height="5.9736853"
       x="15.369358"
       y="0.31044966" />
    <rect
       style="display:inline;fill:#acacac;fill-opacity:1;stroke:#000000;stroke-width:0.191494;stroke-dasharray:none"
       id="rect375-3"
       width="5.9736853"
       height="5.9736853"
       x="15.326979"
       y="7.211915" />
  </g>
</svg>
